PathFileType	4	(X/Y/Z)	c:\Git\powerlifing_model_clean\simulations\HC835B\Session1\HC835B_OGR_0002\marker_experimental.trc
DataRate	CameraRate	NumFrames	NumMarkers	Units	OrigDataRate	OrigDataStartFrame	OrigNumFrames
240.000000	240.000000	4	38	mm	240.000000	0	218
Frame#	Time	RPSI			LPSI			RASI			LASI			RTH1			RTH2			RTH3			RTH4			RSK1			RSK2			RSK3			RSK4			RCAL1			RCAL2			RCAL3			RST			RPT			RTN			RFMB			RSMB			RVMB			RFMH			RSMH			RVMH			RPM			LTH1			LTH2			LTH3			LTH4			LSK1			LSK2			LSK3			LSK4			LCAL1			LCAL2			LCAL3			LFMH			LVMH			
		X1	Y1	Z1	X2	Y2	Z2	X3	Y3	Z3	X4	Y4	Z4	X5	Y5	Z5	X6	Y6	Z6	X7	Y7	Z7	X8	Y8	Z8	X9	Y9	Z9	X10	Y10	Z10	X11	Y11	Z11	X12	Y12	Z12	X13	Y13	Z13	X14	Y14	Z14	X15	Y15	Z15	X16	Y16	Z16	X17	Y17	Z17	X18	Y18	Z18	X19	Y19	Z19	X20	Y20	Z20	X21	Y21	Z21	X22	Y22	Z22	X23	Y23	Z23	X24	Y24	Z24	X25	Y25	Z25	X26	Y26	Z26	X27	Y27	Z27	X28	Y28	Z28	X29	Y29	Z29	X30	Y30	Z30	X31	Y31	Z31	X32	Y32	Z32	X33	Y33	Z33	X34	Y34	Z34	X35	Y35	Z35	X36	Y36	Z36	X37	Y37	Z37	X38	Y38	Z38	

1	0	479.194793701172	1227.066528320313	205.6783142089844	366.8068542480469	1225.362670898438	194.3178405761719	550.8642578125001	1151.62158203125	20.29601287841797	321.5414123535157	1131.672485351563	6.529413223266603	613.3210449218751	866.4680175781252	42.82612228393555	597.9604492187501	872.1666259765627	-16.24500274658203	601.0559692382814	795.2459106445315	-1.365503072738648	574.6599121093751	799.2430419921877	-53.72677612304689	537.8833618164064	350.5787048339844	-9.829071998596193	545.4808959960939	344.8728027343751	-70.88579559326173	531.3541259765626	297.5208740234376	-34.16799545288087	526.4690551757814	293.8378295898438	-93.8815155029297	456.6814575195314	142.5672149658203	-9.078172683715822	416.3540039062501	117.8775482177735	-27.66913795471192	476.6843872070314	98.56558990478518	-17.80143356323243	419.3724670410157	146.6222839355469	-94.07813262939455	511.456268310547	110.2223434448242	-70.84583282470705	444.0118713378907	167.314193725586	-142.2693786621094	447.2110290527345	153.0288696289063	-175.638412475586	500.9981079101564	162.9354248046875	-176.7291870117188	519.9226074218751	88.2119827270508	-117.9928588867188	442.5653381347657	131.984375	-234.036361694336	500.4527587890626	133.1143341064453	-239.7491607666016	545.3875732421876	83.60324096679689	-194.0495910644532	496.8913574218751	139.4373779296875	-294.8036499023438	251.4580841064454	880.5795898437502	202.7983551025391	264.3382873535157	845.6193847656252	154.6483001708985	263.2766723632813	797.3739013671877	219.8888092041016	289.2989807128907	765.5430908203126	175.143539428711	295.4523925781251	506.1478881835939	569.7538452148439	289.4843139648438	457.2246398925782	547.8150634765626	296.5610046386719	457.6892395019532	596.7500000000001	307.4433593750001	407.2366638183595	571.3348999023439	362.1386108398438	415.5951232910157	720.4718017578126	340.6000366210938	400.3658752441407	760.5671997070314	398.2554321289064	400.0616760253907	747.8323974609376	405.2460327148439	196.1922149658204	662.9448852539064	304.5030517578126	214.0876922607422	722.2407226562501	
2	0.004166666666666667	479.6031188964845	1225.662353515625	192.1562042236329	367.1060485839844	1224.242309570313	180.780258178711	551.0895385742189	1149.467041015625	7.248411655426027	321.4997253417969	1131.25537109375	-6.94790554046631	613.9550781250001	863.5584716796877	32.09376525878907	597.9328002929689	868.5206298828127	-26.87007713317872	601.2353515625001	791.7758789062502	-11.18146896362305	574.3079833984376	795.1943359375002	-63.31731033325197	537.8400268554689	347.6564636230469	-26.19164276123048	545.4531860351564	343.1582336425782	-87.3881072998047	531.5175781250001	295.1648559570313	-51.71444320678712	526.5195922851564	292.5401000976563	-111.4785614013672	456.4913940429689	138.6476287841797	-30.41990470886231	416.3862915039064	114.9603118896485	-49.22324752807619	476.5743103027345	95.09075164794923	-39.91709518432618	419.6455993652345	145.3502197265625	-114.9871063232422	511.4920043945314	107.8536453247071	-92.60938262939455	444.3938903808595	167.1365356445313	-162.667465209961	447.5999755859376	153.5367431640625	-196.4720306396485	501.4014892578126	163.1084899902344	-197.2214508056641	519.8101196289064	86.85809326171876	-140.2958221435547	442.8530578613282	133.9436950683594	-255.2274017333985	500.7464599609376	134.927963256836	-260.9432373046876	545.5839233398439	84.31604766845705	-216.3967895507813	497.3673095703126	142.8846588134766	-315.6984558105469	251.8880310058594	878.341491699219	187.7644500732422	265.0312194824219	843.8428955078127	139.3557586669922	263.5383911132813	795.1920166015627	204.3280181884766	289.8290100097657	763.6793212890626	159.5227508544922	295.6517028808594	510.879608154297	558.2750854492189	289.1105651855469	461.6475219726564	537.7753295898439	296.5146179199219	463.2051086425782	586.7330932617189	306.6312255859376	412.1351928710939	562.3610839843751	362.1191406250001	423.6870422363282	711.2287597656251	340.8736267089844	409.2417907714845	751.7985839843751	398.4564208984376	408.7722473144532	738.6580810546876	404.5608825683595	203.1207580566407	658.0331420898439	304.3875122070313	222.0468292236329	718.2769775390626	
3	0.008333333333333333	480.0217895507814	1223.913208007813	178.7261810302735	367.4331665039063	1222.855834960938	167.4122314453125	551.2330322265626	1147.147583007813	-5.78612232208252	321.4295654296876	1130.687377929688	-20.65825462341309	614.7073974609376	860.6030273437502	21.21936225891114	598.0921630859376	864.9962158203127	-37.63551330566407	601.4650268554689	788.3347778320315	-21.11538696289063	574.0617065429689	791.205993652344	-73.0706253051758	537.6122436523439	344.7041625976563	-42.22943115234376	545.5213623046876	341.3604125976563	-103.4743576049805	531.4082641601564	292.6836853027344	-68.69321441650392	526.7205810546876	291.2231140136719	-128.4985809326172	457.0691223144532	135.719482421875	-50.45851135253908	416.7669067382814	112.5015716552735	-69.52038574218751	476.8671264648439	92.05989074707033	-60.90931701660158	420.2014770507814	143.7975006103516	-134.8919830322266	511.7818298339845	105.8241424560547	-113.3765487670899	444.7977905273439	166.1828155517578	-182.3805847167969	448.031707763672	153.8565673828125	-216.2645111083985	501.5224914550782	163.1860809326172	-216.900131225586	519.9429321289064	85.71518707275392	-161.5146484375	442.4730834960939	135.4158782958985	-275.2222290039063	500.8134765625001	136.3086090087891	-281.1399841308594	545.6748657226564	84.86119842529298	-237.6611633300782	497.2709960937501	145.6312713623047	-335.6272583007813	252.2014923095704	875.870300292969	172.5643920898438	265.7222900390626	841.7776489257815	124.0841522216797	263.6676940917969	792.5975341796877	188.6373748779297	290.3085327148438	761.4028930664064	143.8307189941407	295.9205017089844	515.5704345703126	546.4821777343751	288.7883605957032	465.8778381347657	527.3525390625001	296.3528747558594	468.3338928222657	576.7431030273439	305.9925231933594	416.9532775878907	553.1536865234376	362.1221008300782	431.8015747070314	701.5009765625001	341.1876525878907	418.2640075683595	742.5701293945314	398.657684326172	417.3700256347657	728.9351196289064	403.9295959472657	210.2216339111329	652.6843261718751	304.1936950683594	230.4848785400391	713.4674072265626	
4	0.0125	480.508758544922	1221.813110351563	165.359130859375	367.8317260742188	1221.193115234375	154.0618286132813	551.3358154296876	1144.605834960938	-18.81834983825684	321.3452148437501	1129.769409179688	-34.26475906372071	615.4470214843751	857.615661621094	10.16850471496582	598.3712158203126	861.5201416015627	-48.55214309692384	601.8396606445314	784.9976196289065	-31.38996315002442	574.0787963867189	787.4252929687502	-83.09761047363283	537.2122802734376	341.8771362304688	-57.85803985595705	545.5365600585939	339.4559020996094	-119.0868682861328	531.3262939453126	290.2096252441407	-85.13417053222658	526.8804931640626	289.6544189453126	-144.9654235839844	457.4894104003907	132.5836944580078	-69.5220413208008	417.2857055664064	109.7210540771485	-88.85379028320314	477.4817199707032	89.35865783691408	-80.75254058837892	420.6219482421876	142.2390289306641	-153.5969696044922	512.1177978515626	103.912467956543	-133.1654663085938	445.6351013183595	165.1891021728516	-200.9868774414063	448.0729980468751	153.580078125	-235.0537414550782	501.359832763672	162.9712982177735	-235.6420135498047	520.1179199218751	84.60208129882814	-181.6179656982422	442.1153869628907	136.1161041259766	-294.1273498535157	500.4738159179689	137.1654663085938	-300.3085327148438	545.4204101562501	84.99116516113283	-257.8702392578126	496.6531066894532	147.569320678711	-354.5233154296876	252.3617553710938	873.2386474609377	157.461181640625	266.1721801757813	839.5003051757815	108.7782211303711	263.8807983398438	789.877380371094	172.9696960449219	290.6110229492188	759.0509643554689	127.9963455200196	296.2930297851563	520.0401611328126	534.2037963867189	288.4751892089844	470.0326538085939	516.5404663085939	296.2842407226563	473.937713623047	565.8927001953126	305.3746948242188	421.6036987304689	543.5034179687501	362.1127014160157	439.9523315429689	691.2970581054689	341.4756774902344	427.2897033691407	732.8054809570314	398.8681945800782	426.137908935547	718.7463989257814	403.1392211914064	217.298080444336	647.1122436523439	304.0046081542969	239.1007385253907	708.3265991210939	
